<svg width="78" height="86" viewBox="0 0 78 86" fill="none" xmlns="http://www.w3.org/2000/svg">
<path d="M42.0481 65.1736L44.3894 55.4972H41.1055V53.7119H56.7146V55.4972H46.3946L45.6862 58.6215H55.598L53.995 68.0241H57.303V69.8094H40.4932V68.0241H51.8998L52.4581 65.1736H42.0481ZM52.6983 63.4894L53.2626 60.3116H45.278L44.5635 63.5132H52.6983V63.4894Z" fill="black"/>
<path d="M37.1668 61.2936H30.3288V60.4664L35.7439 55.0213V53.7358H21.8879V55.4735H32.6161L28.2456 59.7821V61.2936H20.6392V63.0611H28.2456V68.0004H23.5388V69.7619H30.3288V68.2265V63.0611H37.1668V61.2936Z" fill="black"/>
<path d="M66.4827 64.1443L66.8909 67.5185H62.8746L64.1713 60.895H68.818V59.1514H60.6353V60.895H62.2382L60.6353 69.2859H69.0762L68.2357 63.817L66.4827 64.1443Z" fill="black"/>
<path d="M68.5173 54.3906H61.043V56.0569H68.5173V54.3906Z" fill="black"/>
<path d="M73.4713 54.8721L73.6514 53.4558L71.7723 53.2534L71.5922 54.8721H70.0913V56.6336H71.3881L69.8872 69.5354L71.7723 69.7615L73.2972 56.6336H75.8607L75.6326 67.8512H74.666V69.6901H77.7218L77.8719 54.8721H73.4713Z" fill="black"/>
<path d="M3.83623 53.8602L4.24447 52.4498L2.38939 52.2236L1.92712 53.8602L1.47086 55.6217L0 60.4658L1.8791 60.6622L3.37997 55.6217H14.3604L14.1082 67.8212H10.8543V69.6601H16.1914L16.3715 53.8602H3.83623Z" fill="black"/>
<path d="M4.02783 65.4534H12.1265V57.9194H4.02783V65.4534ZM6.033 59.6333H10.1034V63.6681H6.04501V59.6095L6.033 59.6333Z" fill="black"/>
<path d="M3.63023 84.5258C2.27089 84.5258 1.36467 83.972 0.735352 82.8896L2.01917 81.9456C2.38417 82.6253 2.87504 82.9147 3.40367 82.9147C4.22179 82.9147 4.64973 82.4742 4.64973 81.1904V75.0356H6.51252V81.3414C6.51252 83.091 5.63147 84.5258 3.63023 84.5258Z" fill="#FC790D"/>
<path d="M78.0003 76.7329H75.5448V84.2552H73.8429V76.7329H71.4004V75.2388H78.0003V76.7329Z" fill="black"/>
<path d="M63.8107 84.3847C63.1611 84.3847 62.5851 84.3154 62.0828 84.1768C61.5804 84.0383 61.1604 83.7957 60.8226 83.4493C60.4848 83.0942 60.2249 82.6178 60.043 82.0202C59.8698 81.4225 59.7832 80.6647 59.7832 79.7466C59.7832 78.8371 59.8698 78.0836 60.043 77.4859C60.2249 76.8883 60.4848 76.4163 60.8226 76.0698C61.1604 75.7147 61.5804 75.4678 62.0828 75.3293C62.5851 75.182 63.1611 75.1084 63.8107 75.1084C64.4603 75.1084 65.032 75.182 65.5257 75.3293C66.028 75.4678 66.4481 75.7147 66.7859 76.0698C67.1324 76.4163 67.3922 76.8883 67.5654 77.4859C67.7387 78.0836 67.8253 78.8371 67.8253 79.7466C67.8253 80.6647 67.7387 81.4225 67.5654 82.0202C67.3922 82.6178 67.1324 83.0942 66.7859 83.4493C66.4481 83.7957 66.028 84.0383 65.5257 84.1768C65.032 84.3154 64.4603 84.3847 63.8107 84.3847ZM63.8107 82.9556C64.2698 82.9556 64.6422 82.8993 64.928 82.7867C65.2225 82.6654 65.4521 82.4792 65.6166 82.228C65.7812 81.9769 65.8938 81.6477 65.9544 81.2406C66.015 80.8336 66.0454 80.3355 66.0454 79.7466C66.0454 79.1749 66.015 78.6855 65.9544 78.2785C65.8938 77.8627 65.7812 77.5249 65.6166 77.2651C65.4521 77.0052 65.2225 76.8147 64.928 76.6934C64.6422 76.5722 64.2698 76.5115 63.8107 76.5115C63.3517 76.5115 62.9749 76.5722 62.6804 76.6934C62.3859 76.8147 62.1564 77.0052 61.9918 77.2651C61.8273 77.5249 61.7147 77.8627 61.6541 78.2785C61.5934 78.6855 61.5631 79.1749 61.5631 79.7466C61.5631 80.3355 61.5934 80.8336 61.6541 81.2406C61.7147 81.6477 61.8273 81.9769 61.9918 82.228C62.1564 82.4792 62.3859 82.6654 62.6804 82.7867C62.9749 82.8993 63.3517 82.9556 63.8107 82.9556Z" fill="black"/>
<path d="M48.8438 75.2388H51.741C52.3733 75.2388 52.8973 75.2907 53.313 75.3947C53.7374 75.4899 54.0709 75.6372 54.3134 75.8364C54.5646 76.0356 54.7378 76.2868 54.8331 76.5899C54.937 76.8931 54.989 77.2482 54.989 77.6553C54.989 78.123 54.8894 78.5171 54.6902 78.8376C54.4996 79.1494 54.1618 79.3789 53.6768 79.5261V79.5781C54.2398 79.708 54.6425 79.9505 54.885 80.3057C55.1362 80.6521 55.2618 81.1025 55.2618 81.6568C55.2618 82.0639 55.2099 82.432 55.1059 82.7612C55.0106 83.0816 54.8374 83.3545 54.5862 83.5797C54.3351 83.7962 53.9973 83.9651 53.5729 84.0863C53.1571 84.1989 52.6331 84.2552 52.0008 84.2552H48.8438V75.2388ZM51.2863 79.0324C51.6414 79.0324 51.9445 79.0151 52.1957 78.9805C52.4555 78.9458 52.6677 78.8852 52.8323 78.7986C52.9969 78.7033 53.1181 78.5777 53.1961 78.4218C53.274 78.2659 53.313 78.0624 53.313 77.8112C53.313 77.5427 53.274 77.3305 53.1961 77.1746C53.1181 77.0187 52.9969 76.9018 52.8323 76.8238C52.6764 76.7372 52.4685 76.6809 52.2087 76.6549C51.9575 76.6289 51.65 76.6159 51.2863 76.6159H50.5457V79.0324H51.2863ZM51.5591 82.8651C51.9488 82.8651 52.2693 82.8478 52.5205 82.8131C52.7803 82.7785 52.9839 82.7135 53.1311 82.6182C53.287 82.5143 53.3953 82.3801 53.4559 82.2155C53.5166 82.0509 53.5469 81.8387 53.5469 81.5789C53.5469 81.345 53.5166 81.1458 53.4559 80.9813C53.3953 80.8167 53.287 80.6868 53.1311 80.5915C52.9839 80.4876 52.7803 80.4139 52.5205 80.3706C52.2693 80.3187 51.9488 80.2927 51.5591 80.2927H50.5457V82.8651H51.5591Z" fill="black"/>
<path d="M42.7181 84.3326C42.5015 84.3326 42.324 84.3196 42.1854 84.2937C42.0555 84.2677 41.9515 84.22 41.8736 84.1507C41.7956 84.0728 41.7437 83.9689 41.7177 83.8389C41.6917 83.7004 41.6787 83.5185 41.6787 83.2933C41.6787 83.0681 41.6917 82.8862 41.7177 82.7476C41.7437 82.609 41.7956 82.5051 41.8736 82.4358C41.9515 82.3578 42.0555 82.3102 42.1854 82.2929C42.324 82.2669 42.5015 82.2539 42.7181 82.2539C42.9259 82.2539 43.0948 82.2669 43.2248 82.2929C43.3633 82.3102 43.4716 82.3578 43.5496 82.4358C43.6275 82.5051 43.6795 82.609 43.7055 82.7476C43.7401 82.8862 43.7574 83.0681 43.7574 83.2933C43.7574 83.5185 43.7401 83.7004 43.7055 83.8389C43.6795 83.9689 43.6275 84.0728 43.5496 84.1507C43.4716 84.22 43.3633 84.2677 43.2248 84.2937C43.0948 84.3196 42.9259 84.3326 42.7181 84.3326Z" fill="black"/>
<path d="M34.896 75.2388H36.598V84.2552H34.896V75.2388Z" fill="#FC790D"/>
<path d="M23.2324 82.6832L27.9355 76.7978L27.9225 76.7199H23.4923V75.2388H30.0013V76.7458L25.2462 82.6832V82.7612H30.3261V84.2552H23.2324V82.6832Z" fill="#FC790D"/>
<path d="M14.8663 84.3852C14.2773 84.3852 13.7576 84.3332 13.3072 84.2293C12.8569 84.1253 12.4758 83.9521 12.1639 83.7096C11.8608 83.4671 11.6269 83.1509 11.4624 82.7612C11.3065 82.3627 11.2285 81.8734 11.2285 81.2931V75.2388H12.9305V81.0592C12.9305 81.3883 12.9608 81.6698 13.0214 81.9037C13.082 82.1375 13.186 82.3281 13.3332 82.4753C13.4891 82.6226 13.6883 82.7352 13.9309 82.8131C14.182 82.8824 14.4982 82.9171 14.8793 82.9171C15.269 82.9171 15.5895 82.8824 15.8407 82.8131C16.1005 82.7352 16.3041 82.6182 16.4513 82.4623C16.5986 82.3064 16.6982 82.1116 16.7501 81.8777C16.8108 81.6438 16.8411 81.371 16.8411 81.0592V75.2388H18.53V81.2931C18.53 82.3931 18.2139 83.1856 17.5816 83.6706C16.958 84.147 16.0529 84.3852 14.8663 84.3852Z" fill="#FC790D"/>
<path fill-rule="evenodd" clip-rule="evenodd" d="M46.2702 1.49582C48.6592 2.49945 50.8158 3.97687 52.6074 5.83724C54.4831 7.62629 55.9728 9.77424 56.9862 12.1509C57.9996 14.5276 58.5157 17.0835 58.503 19.6637C58.5301 31.4805 50.2151 40.1863 33.5581 45.7812V38.6188C29.2716 37.5005 25.5087 34.9437 22.9103 31.384C20.3423 28.0063 18.9506 23.8932 18.9448 19.6637C18.9131 17.0844 19.4165 14.5261 20.4237 12.1477C21.4309 9.76923 22.9204 7.62133 24.7998 5.83724C26.5892 3.96737 28.7488 2.48388 31.1434 1.47965C33.538 0.475422 36.1159 -0.0279037 38.7158 0.00119326C41.3104 -0.0164494 43.8812 0.492184 46.2702 1.49582ZM42.9831 24.2228L42.9101 24.2952L42.9506 24.2389C42.8676 24.2593 42.7903 24.2983 42.7249 24.3529C42.6594 24.4075 42.6074 24.4763 42.573 24.5539C42.5385 24.6316 42.5225 24.716 42.5261 24.8007C42.5297 24.8855 42.5529 24.9683 42.5938 25.0428C42.7254 25.2942 42.9322 25.4991 43.1858 25.6296C43.2667 25.6821 43.3552 25.7166 43.4419 25.7503C43.6072 25.8146 43.7657 25.8763 43.8508 26.0556C43.9806 26.3289 43.8508 26.8354 43.0398 26.9158C42.1593 26.9014 41.2959 26.6723 40.5259 26.2486C40.0235 25.9818 39.5386 25.6838 39.0743 25.3563H38.6039C34.4843 25.2759 31.2243 22.1649 31.3054 18.5395C31.3865 14.9141 34.8087 12.0282 38.9283 12.1086C43.048 12.189 46.308 15.2678 46.2269 18.9254C46.1728 20.006 45.8479 21.0562 45.2815 21.9811C44.7152 22.9061 43.9252 23.6765 42.9831 24.2228Z" fill="#FC790D"/>
</svg>
