<svg width="106" height="64" viewBox="0 0 106 64" fill="none" xmlns="http://www.w3.org/2000/svg">
<path fill-rule="evenodd" clip-rule="evenodd" d="M10.4262 20.1499C13.254 20.1499 15.6992 21.1557 17.7607 23.1645C19.8214 25.1746 20.8526 27.5586 20.8526 30.3151C20.8526 36.4391 16.4662 40.9479 7.69401 43.846V40.1305C5.34468 39.4751 3.47491 38.2252 2.08511 36.3797C0.694279 34.5337 0 32.5132 0 30.3151C0 27.5586 1.02993 25.1746 3.09185 23.1645C5.15212 21.1557 7.59711 20.1499 10.4262 20.1499ZM12.6737 32.6771C12.6505 32.699 12.637 32.7115 12.637 32.7115C12.4662 32.8012 12.3763 32.9354 12.454 33.1162C12.5217 33.2732 12.5946 33.3244 12.7592 33.4255C12.807 33.4548 12.8554 33.4745 12.9015 33.4934C12.9878 33.5286 13.0664 33.5607 13.1193 33.6456C13.2048 33.7824 13.1375 34.0499 12.7103 34.0855C12.3875 34.1125 11.8322 33.9608 11.3802 33.7349C10.9747 33.5317 10.6051 33.2772 10.6051 33.2768C10.5815 33.2774 10.5578 33.2783 10.5342 33.2791C10.4723 33.2813 10.4102 33.2835 10.3471 33.2816C8.17732 33.229 6.45767 31.6493 6.50571 29.7523C6.55395 27.8551 8.35166 26.3598 10.5213 26.412C12.6913 26.4646 14.4109 28.045 14.3627 29.9417C14.3337 31.0832 13.669 32.0763 12.6737 32.6771Z" fill="#FC790D"/>
<path d="M31.4431 34.5728C31.4431 38.1702 29.9467 39.9689 26.9541 39.9689C25.728 39.9427 24.5599 39.4457 23.6963 38.5825L25.5806 36.6897C25.723 36.9645 25.9324 37.1996 26.1899 37.3736C26.4473 37.5476 26.7446 37.655 27.0546 37.6859C27.2971 37.6931 27.5367 37.6332 27.7467 37.5129C27.9568 37.3927 28.1289 37.2169 28.2438 37.0052C28.5868 36.0737 28.7211 35.0794 28.6375 34.0913V24.835H31.4431V34.5728Z" fill="#FC790D"/>
<path d="M36.6216 29.9941V35.1827C36.6216 37.0506 37.3503 37.9803 38.8075 37.9803C40.2647 37.9803 41.0017 37.0506 41.0017 35.1827V29.9941H43.6482V35.631C43.6482 38.4784 42.0402 39.9063 38.8075 39.9063C35.5748 39.9063 33.9668 38.4701 33.9668 35.631V29.9941H36.6216Z" fill="#FC790D"/>
<path d="M56.0572 37.6649V39.5826H46.0073L51.8697 31.9118H46.7024V29.9941H56.2163L50.4711 37.6649H56.0572Z" fill="#FC790D"/>
<path d="M61.8593 25.9596C61.8593 26.1451 61.818 26.3283 61.7384 26.4962C61.6588 26.664 61.5428 26.8125 61.3987 26.9308C61.0942 27.1925 60.7046 27.3366 60.3016 27.3366C59.8986 27.3366 59.509 27.1925 59.2045 26.9308C59.0605 26.8124 58.9445 26.664 58.865 26.4961C58.7854 26.3282 58.7441 26.145 58.7441 25.9596C58.7441 25.7741 58.7854 25.5909 58.865 25.423C58.9445 25.2551 59.0605 25.1067 59.2045 24.9883C59.509 24.7266 59.8986 24.5825 60.3016 24.5825C60.7046 24.5825 61.0942 24.7266 61.3987 24.9883C61.5428 25.1066 61.6588 25.2551 61.7384 25.4229C61.818 25.5908 61.8593 25.774 61.8593 25.9596V25.9596ZM61.6416 39.5826H58.9868V29.9942H61.6416V39.5826Z" fill="#FC790D"/>
<path d="M69.351 38.1912C69.3529 38.4277 69.3039 38.6619 69.2071 38.8781C69.1103 39.0943 68.9681 39.2875 68.7899 39.4447C68.4163 39.7921 67.92 39.9799 67.408 39.9677C66.8929 39.9779 66.3931 39.7939 66.0094 39.453C65.8236 39.302 65.6739 39.1119 65.5711 38.8966C65.4684 38.6813 65.415 38.446 65.415 38.2078C65.415 37.9696 65.4684 37.7343 65.5711 37.519C65.6739 37.3037 65.8236 37.1136 66.0094 36.9625C66.3875 36.6235 66.8815 36.4395 67.3913 36.4478C67.8972 36.4359 68.3896 36.6104 68.7731 36.9376C68.9618 37.0871 69.1124 37.2784 69.2128 37.4961C69.3132 37.7139 69.3605 37.952 69.351 38.1912Z" fill="white"/>
<path d="M72.7816 22.9937H75.4364V30.8636C75.8916 30.4414 76.4305 30.1178 77.0188 29.9134C77.6071 29.709 78.2319 29.6283 78.8533 29.6765C79.5182 29.6591 80.179 29.7844 80.7904 30.0437C81.4019 30.3031 81.9496 30.6904 82.3959 31.1791C83.3171 32.1319 83.8251 33.4043 83.8113 34.7239C83.8518 36.087 83.3494 37.4111 82.4127 38.4098C81.9532 38.899 81.3932 39.2847 80.7705 39.541C80.1479 39.7974 79.477 39.9184 78.8031 39.8958C77.2119 39.8958 76.1064 39.4891 75.4531 38.6838L75.4029 39.5804H72.748L72.7816 22.9937ZM81.0978 34.7986C81.1043 34.005 80.8047 33.2388 80.2603 32.6568C79.9889 32.3573 79.6552 32.1198 79.2821 31.9607C78.909 31.8017 78.5056 31.7247 78.0996 31.7353C77.6978 31.7223 77.298 31.7973 76.9288 31.9552C76.5596 32.1131 76.2302 32.3498 75.964 32.6485C75.4186 33.2365 75.1192 34.0081 75.1265 34.8069C75.1074 35.6102 75.4082 36.3887 75.964 36.9737C76.244 37.257 76.5782 37.4822 76.947 37.6359C77.3159 37.7896 77.712 37.8688 78.1122 37.8688C78.5123 37.8688 78.9084 37.7896 79.2773 37.6359C79.6462 37.4822 79.9804 37.257 80.2603 36.9737C80.809 36.381 81.1086 35.603 81.0978 34.7986V34.7986Z" fill="white"/>
<path d="M96.9492 34.7986C96.972 35.4878 96.8447 36.1739 96.5759 36.8099C96.3071 37.446 95.9031 38.0172 95.3915 38.4845C94.2689 39.4709 92.8033 39.986 91.3046 39.9207C89.7957 39.9859 88.3197 39.4715 87.1841 38.4845C86.6653 38.0215 86.2548 37.4518 85.9814 36.8151C85.7079 36.1784 85.5782 35.4902 85.6012 34.7986C85.5796 34.1107 85.7076 33.4262 85.9763 32.7917C86.2451 32.1572 86.6485 31.5873 87.159 31.1209C88.2875 30.1342 89.7595 29.622 91.2627 29.693C92.7664 29.6254 94.2388 30.1337 95.3748 31.1126C95.8939 31.5749 96.304 32.1448 96.5761 32.7818C96.8482 33.4188 96.9756 34.1073 96.9492 34.7986V34.7986ZM88.2812 34.7986C88.263 35.2024 88.3279 35.6057 88.4718 35.9839C88.6158 36.3621 88.8359 36.7073 89.1187 36.9985C89.4066 37.2775 89.749 37.4951 90.1249 37.6379C90.5009 37.7806 90.9023 37.8456 91.3046 37.8287C91.7086 37.8458 92.1114 37.7735 92.4837 37.617C92.856 37.4604 93.1885 37.2236 93.4569 36.9238C94 36.331 94.2989 35.5578 94.2944 34.7571C94.3018 33.9583 94.0024 33.1866 93.4569 32.5986C93.1891 32.2997 92.8581 32.063 92.4876 31.9051C92.1171 31.7473 91.716 31.6723 91.3129 31.6854C90.9078 31.6705 90.504 31.7412 90.1286 31.893C89.7531 32.0447 89.4146 32.2739 89.1354 32.5654C88.8487 32.8614 88.6252 33.2118 88.4784 33.5956C88.3316 33.9793 88.2645 34.3885 88.2812 34.7986V34.7986Z" fill="white"/>
<path d="M105.012 37.8176C104.619 37.8128 104.232 37.7181 103.882 37.541C103.532 37.3639 103.228 37.1091 102.993 36.7965C102.857 36.2303 102.781 35.6516 102.767 35.0697L102.725 33.2932V33.1853V32.9528V32.463H104.551V30.1717H102.725V26.7432H100.104V29.6404V30.1717H98.3203V32.5045H100.104V34.8041C100.104 36.315 100.263 37.8591 100.833 38.5315C101.316 39.0532 101.912 39.4601 102.576 39.7217C103.24 39.9833 103.956 40.0929 104.668 40.0424H106V37.8176H105.012Z" fill="white"/>
</svg>
