<svg width="78" height="75" viewBox="0 0 78 75" fill="none" xmlns="http://www.w3.org/2000/svg">
<path d="M76.14 58.1873H72.8325V68.3198H70.54V58.1873H67.25V56.1748H76.14V58.1873Z" fill="#1A2233"/>
<path d="M61.0383 68.495C60.1633 68.495 59.3874 68.4017 58.7108 68.215C58.0341 68.0283 57.4683 67.7017 57.0133 67.235C56.5583 66.7567 56.2083 66.115 55.9633 65.31C55.7299 64.505 55.6133 63.4842 55.6133 62.2475C55.6133 61.0225 55.7299 60.0075 55.9633 59.2025C56.2083 58.3975 56.5583 57.7617 57.0133 57.295C57.4683 56.8167 58.0341 56.4842 58.7108 56.2975C59.3874 56.0992 60.1633 56 61.0383 56C61.9133 56 62.6833 56.0992 63.3483 56.2975C64.0249 56.4842 64.5908 56.8167 65.0458 57.295C65.5124 57.7617 65.8624 58.3975 66.0958 59.2025C66.3291 60.0075 66.4458 61.0225 66.4458 62.2475C66.4458 63.4842 66.3291 64.505 66.0958 65.31C65.8624 66.115 65.5124 66.7567 65.0458 67.235C64.5908 67.7017 64.0249 68.0283 63.3483 68.215C62.6833 68.4017 61.9133 68.495 61.0383 68.495ZM61.0383 66.57C61.6566 66.57 62.1583 66.4942 62.5433 66.3425C62.9399 66.1792 63.2491 65.9283 63.4708 65.59C63.6924 65.2517 63.8441 64.8083 63.9258 64.26C64.0074 63.7117 64.0483 63.0408 64.0483 62.2475C64.0483 61.4775 64.0074 60.8183 63.9258 60.27C63.8441 59.71 63.6924 59.255 63.4708 58.905C63.2491 58.555 62.9399 58.2983 62.5433 58.135C62.1583 57.9717 61.6566 57.89 61.0383 57.89C60.4199 57.89 59.9124 57.9717 59.5158 58.135C59.1191 58.2983 58.8099 58.555 58.5883 58.905C58.3666 59.255 58.2149 59.71 58.1333 60.27C58.0516 60.8183 58.0108 61.4775 58.0108 62.2475C58.0108 63.0408 58.0516 63.7117 58.1333 64.26C58.2149 64.8083 58.3666 65.2517 58.5883 65.59C58.8099 65.9283 59.1191 66.1792 59.5158 66.3425C59.9124 66.4942 60.4199 66.57 61.0383 66.57Z" fill="#1A2233"/>
<path d="M44.8887 56.1748H48.7912C49.6428 56.1748 50.3487 56.2448 50.9087 56.3848C51.4803 56.5131 51.9295 56.7115 52.2562 56.9798C52.5945 57.2481 52.8278 57.5865 52.9562 57.9948C53.0962 58.4031 53.1662 58.8815 53.1662 59.4298C53.1662 60.0598 53.032 60.5906 52.7637 61.0223C52.507 61.4423 52.052 61.7515 51.3987 61.9498V62.0198C52.157 62.1948 52.6995 62.5215 53.0262 62.9998C53.3645 63.4665 53.5337 64.0731 53.5337 64.8198C53.5337 65.3681 53.4637 65.864 53.3237 66.3073C53.1953 66.739 52.962 67.1065 52.6237 67.4098C52.2853 67.7015 51.8303 67.929 51.2587 68.0923C50.6987 68.244 49.9928 68.3198 49.1412 68.3198H44.8887V56.1748ZM48.1787 61.2848C48.657 61.2848 49.0653 61.2615 49.4037 61.2148C49.7537 61.1681 50.0395 61.0865 50.2612 60.9698C50.4828 60.8415 50.6462 60.6723 50.7512 60.4623C50.8562 60.2523 50.9087 59.9781 50.9087 59.6398C50.9087 59.2781 50.8562 58.9923 50.7512 58.7823C50.6462 58.5723 50.4828 58.4148 50.2612 58.3098C50.0512 58.1931 49.7712 58.1173 49.4212 58.0823C49.0828 58.0473 48.6687 58.0298 48.1787 58.0298H47.1812V61.2848H48.1787ZM48.5462 66.4473C49.0712 66.4473 49.5028 66.424 49.8412 66.3773C50.1912 66.3306 50.4653 66.2431 50.6637 66.1148C50.8737 65.9748 51.0195 65.794 51.1012 65.5723C51.1828 65.3506 51.2237 65.0648 51.2237 64.7148C51.2237 64.3998 51.1828 64.1315 51.1012 63.9098C51.0195 63.6881 50.8737 63.5131 50.6637 63.3848C50.4653 63.2448 50.1912 63.1456 49.8412 63.0873C49.5028 63.0173 49.0712 62.9823 48.5462 62.9823H47.1812V66.4473H48.5462Z" fill="#1A2233"/>
<path d="M40.648 68.425C40.3564 68.425 40.1172 68.4075 39.9305 68.3725C39.7555 68.3375 39.6155 68.2733 39.5105 68.18C39.4055 68.075 39.3355 67.935 39.3005 67.76C39.2655 67.5733 39.248 67.3283 39.248 67.025C39.248 66.7217 39.2655 66.4767 39.3005 66.29C39.3355 66.1033 39.4055 65.9633 39.5105 65.87C39.6155 65.765 39.7555 65.7008 39.9305 65.6775C40.1172 65.6425 40.3564 65.625 40.648 65.625C40.928 65.625 41.1555 65.6425 41.3305 65.6775C41.5172 65.7008 41.663 65.765 41.768 65.87C41.873 65.9633 41.943 66.1033 41.978 66.29C42.0247 66.4767 42.048 66.7217 42.048 67.025C42.048 67.3283 42.0247 67.5733 41.978 67.76C41.943 67.935 41.873 68.075 41.768 68.18C41.663 68.2733 41.5172 68.3375 41.3305 68.3725C41.1555 68.4075 40.928 68.425 40.648 68.425Z" fill="#1A2233"/>
<path d="M34.1221 56.1748H36.4146V68.3198H34.1221V56.1748Z" fill="#FC790D"/>
<path d="M22.4209 66.2023L28.7559 58.2748L28.7384 58.1698H22.7709V56.1748H31.5384V58.2048L25.1334 66.2023V66.3073H31.9759V68.3198H22.4209V66.2023Z" fill="#FC790D"/>
<path d="M15.1632 68.4948C14.3699 68.4948 13.6699 68.4248 13.0632 68.2848C12.4565 68.1448 11.9432 67.9115 11.5232 67.5848C11.1149 67.2581 10.7999 66.8323 10.5782 66.3073C10.3682 65.7706 10.2632 65.1115 10.2632 64.3298V56.1748H12.5557V64.0148C12.5557 64.4581 12.5965 64.8373 12.6782 65.1523C12.7599 65.4673 12.8999 65.724 13.0982 65.9223C13.3082 66.1206 13.5765 66.2723 13.9032 66.3773C14.2415 66.4706 14.6674 66.5173 15.1807 66.5173C15.7057 66.5173 16.1374 66.4706 16.4757 66.3773C16.8257 66.2723 17.0999 66.1148 17.2982 65.9048C17.4965 65.6948 17.6307 65.4323 17.7007 65.1173C17.7824 64.8023 17.8232 64.4348 17.8232 64.0148V56.1748H20.0982V64.3298C20.0982 65.8115 19.6724 66.879 18.8207 67.5323C17.9807 68.174 16.7615 68.4948 15.1632 68.4948Z" fill="#FC790D"/>
<path d="M3.795 68.5509C2.013 68.5509 0.825 67.8249 0 66.4059L1.683 65.1684C2.1615 66.0594 2.805 66.4389 3.498 66.4389C4.5705 66.4389 5.1315 65.8614 5.1315 64.1784V56.1099H7.5735V64.3764C7.5735 66.6699 6.4185 68.5509 3.795 68.5509Z" fill="#FC790D"/>
<path fill-rule="evenodd" clip-rule="evenodd" d="M46.2702 1.49582C48.6592 2.49945 50.8158 3.97687 52.6074 5.83724C54.4831 7.62629 55.9728 9.77424 56.9862 12.1509C57.9996 14.5276 58.5157 17.0835 58.503 19.6637C58.5301 31.4805 50.2151 40.1863 33.5581 45.7812V38.6188C29.2716 37.5005 25.5087 34.9437 22.9103 31.384C20.3423 28.0063 18.9506 23.8932 18.9448 19.6637C18.9131 17.0844 19.4165 14.5261 20.4237 12.1477C21.4309 9.76923 22.9204 7.62133 24.7998 5.83724C26.5892 3.96737 28.7488 2.48388 31.1434 1.47965C33.538 0.475422 36.1159 -0.0279037 38.7158 0.00119326C41.3104 -0.0164494 43.8812 0.492184 46.2702 1.49582ZM42.9831 24.2228L42.9101 24.2952L42.9506 24.2389C42.8676 24.2593 42.7903 24.2983 42.7249 24.3529C42.6594 24.4075 42.6074 24.4763 42.573 24.5539C42.5385 24.6316 42.5225 24.716 42.5261 24.8007C42.5297 24.8855 42.5529 24.9683 42.5938 25.0428C42.7254 25.2942 42.9322 25.4991 43.1858 25.6296C43.2667 25.6821 43.3552 25.7166 43.4419 25.7503C43.6072 25.8146 43.7657 25.8763 43.8508 26.0556C43.9806 26.3289 43.8508 26.8354 43.0398 26.9158C42.1593 26.9014 41.2959 26.6723 40.5259 26.2486C40.0235 25.9818 39.5386 25.6838 39.0743 25.3563H38.6039C34.4843 25.2759 31.2243 22.1649 31.3054 18.5395C31.3865 14.9141 34.8087 12.0282 38.9283 12.1086C43.048 12.189 46.308 15.2678 46.2269 18.9254C46.1728 20.006 45.8479 21.0562 45.2815 21.9811C44.7152 22.9061 43.9252 23.6765 42.9831 24.2228Z" fill="#FC790D"/>
</svg>
