<svg width="106" height="60" viewBox="0 0 106 60" fill="none" xmlns="http://www.w3.org/2000/svg">
<path d="M105.703 25.5477H102.395V35.6802H100.103V25.5477H96.813V23.5352H105.703V25.5477Z" fill="white"/>
<path d="M90.6013 35.8554C89.7263 35.8554 88.9504 35.762 88.2738 35.5754C87.5971 35.3887 87.0313 35.062 86.5763 34.5954C86.1213 34.117 85.7713 33.4754 85.5263 32.6704C85.2929 31.8654 85.1763 30.8445 85.1763 29.6079C85.1763 28.3829 85.2929 27.3679 85.5263 26.5629C85.7713 25.7579 86.1213 25.122 86.5763 24.6554C87.0313 24.177 87.5971 23.8445 88.2738 23.6579C88.9504 23.4595 89.7263 23.3604 90.6013 23.3604C91.4763 23.3604 92.2463 23.4595 92.9113 23.6579C93.5879 23.8445 94.1538 24.177 94.6088 24.6554C95.0754 25.122 95.4254 25.7579 95.6588 26.5629C95.8921 27.3679 96.0088 28.3829 96.0088 29.6079C96.0088 30.8445 95.8921 31.8654 95.6588 32.6704C95.4254 33.4754 95.0754 34.117 94.6088 34.5954C94.1538 35.062 93.5879 35.3887 92.9113 35.5754C92.2463 35.762 91.4763 35.8554 90.6013 35.8554ZM90.6013 33.9304C91.2196 33.9304 91.7213 33.8545 92.1063 33.7029C92.5029 33.5395 92.8121 33.2887 93.0338 32.9504C93.2554 32.612 93.4071 32.1687 93.4888 31.6204C93.5704 31.072 93.6113 30.4012 93.6113 29.6079C93.6113 28.8379 93.5704 28.1787 93.4888 27.6304C93.4071 27.0704 93.2554 26.6154 93.0338 26.2654C92.8121 25.9154 92.5029 25.6587 92.1063 25.4954C91.7213 25.332 91.2196 25.2504 90.6013 25.2504C89.9829 25.2504 89.4754 25.332 89.0788 25.4954C88.6821 25.6587 88.3729 25.9154 88.1513 26.2654C87.9296 26.6154 87.7779 27.0704 87.6963 27.6304C87.6146 28.1787 87.5738 28.8379 87.5738 29.6079C87.5738 30.4012 87.6146 31.072 87.6963 31.6204C87.7779 32.1687 87.9296 32.612 88.1513 32.9504C88.3729 33.2887 88.6821 33.5395 89.0788 33.7029C89.4754 33.8545 89.9829 33.9304 90.6013 33.9304Z" fill="white"/>
<path d="M74.4517 23.5352H78.3542C79.2058 23.5352 79.9117 23.6052 80.4717 23.7452C81.0433 23.8735 81.4925 24.0718 81.8192 24.3402C82.1575 24.6085 82.3908 24.9468 82.5192 25.3552C82.6592 25.7635 82.7292 26.2418 82.7292 26.7902C82.7292 27.4202 82.595 27.951 82.3267 28.3827C82.07 28.8027 81.615 29.1118 80.9617 29.3102V29.3802C81.72 29.5552 82.2625 29.8818 82.5892 30.3602C82.9275 30.8268 83.0967 31.4335 83.0967 32.1802C83.0967 32.7285 83.0267 33.2243 82.8867 33.6677C82.7583 34.0993 82.525 34.4668 82.1867 34.7702C81.8483 35.0618 81.3933 35.2893 80.8217 35.4527C80.2617 35.6043 79.5558 35.6802 78.7042 35.6802H74.4517V23.5352ZM77.7417 28.6452C78.22 28.6452 78.6283 28.6218 78.9667 28.5752C79.3167 28.5285 79.6025 28.4468 79.8242 28.3302C80.0458 28.2018 80.2092 28.0327 80.3142 27.8227C80.4192 27.6127 80.4717 27.3385 80.4717 27.0002C80.4717 26.6385 80.4192 26.3527 80.3142 26.1427C80.2092 25.9327 80.0458 25.7752 79.8242 25.6702C79.6142 25.5535 79.3342 25.4777 78.9842 25.4427C78.6458 25.4077 78.2317 25.3902 77.7417 25.3902H76.7442V28.6452H77.7417ZM78.1092 33.8077C78.6342 33.8077 79.0658 33.7843 79.4042 33.7377C79.7542 33.691 80.0283 33.6035 80.2267 33.4752C80.4367 33.3352 80.5825 33.1543 80.6642 32.9327C80.7458 32.711 80.7867 32.4252 80.7867 32.0752C80.7867 31.7602 80.7458 31.4918 80.6642 31.2702C80.5825 31.0485 80.4367 30.8735 80.2267 30.7452C80.0283 30.6052 79.7542 30.506 79.4042 30.4477C79.0658 30.3777 78.6342 30.3427 78.1092 30.3427H76.7442V33.8077H78.1092Z" fill="white"/>
<path d="M70.211 35.7854C69.9194 35.7854 69.6802 35.7679 69.4935 35.7329C69.3185 35.6979 69.1785 35.6337 69.0735 35.5404C68.9685 35.4354 68.8985 35.2954 68.8635 35.1204C68.8285 34.9337 68.811 34.6887 68.811 34.3854C68.811 34.082 68.8285 33.837 68.8635 33.6504C68.8985 33.4637 68.9685 33.3237 69.0735 33.2304C69.1785 33.1254 69.3185 33.0612 69.4935 33.0379C69.6802 33.0029 69.9194 32.9854 70.211 32.9854C70.491 32.9854 70.7185 33.0029 70.8935 33.0379C71.0802 33.0612 71.226 33.1254 71.331 33.2304C71.436 33.3237 71.506 33.4637 71.541 33.6504C71.5877 33.837 71.611 34.082 71.611 34.3854C71.611 34.6887 71.5877 34.9337 71.541 35.1204C71.506 35.2954 71.436 35.4354 71.331 35.5404C71.226 35.6337 71.0802 35.6979 70.8935 35.7329C70.7185 35.7679 70.491 35.7854 70.211 35.7854Z" fill="white"/>
<path d="M63.6851 23.5352H65.9776V35.6802H63.6851V23.5352Z" fill="#FC790D"/>
<path d="M51.9839 33.5627L58.3189 25.6352L58.3014 25.5302H52.3339V23.5352H61.1014V25.5652L54.6964 33.5627V33.6677H61.5389V35.6802H51.9839V33.5627Z" fill="#FC790D"/>
<path d="M44.7262 35.8552C43.9328 35.8552 43.2328 35.7852 42.6262 35.6452C42.0195 35.5052 41.5062 35.2718 41.0862 34.9452C40.6778 34.6185 40.3628 34.1927 40.1412 33.6677C39.9312 33.131 39.8262 32.4718 39.8262 31.6902V23.5352H42.1187V31.3752C42.1187 31.8185 42.1595 32.1977 42.2412 32.5127C42.3228 32.8277 42.4628 33.0843 42.6612 33.2827C42.8712 33.481 43.1395 33.6327 43.4662 33.7377C43.8045 33.831 44.2303 33.8777 44.7437 33.8777C45.2687 33.8777 45.7003 33.831 46.0387 33.7377C46.3887 33.6327 46.6628 33.4752 46.8612 33.2652C47.0595 33.0552 47.1937 32.7927 47.2637 32.4777C47.3453 32.1627 47.3862 31.7952 47.3862 31.3752V23.5352H49.6612V31.6902C49.6612 33.1718 49.2353 34.2393 48.3837 34.8927C47.5437 35.5343 46.3245 35.8552 44.7262 35.8552Z" fill="#FC790D"/>
<path d="M33.358 35.9112C31.576 35.9112 30.388 35.1852 29.563 33.7662L31.246 32.5287C31.7245 33.4197 32.368 33.7992 33.061 33.7992C34.1335 33.7992 34.6945 33.2217 34.6945 31.5387V23.4702H37.1365V31.7367C37.1365 34.0302 35.9815 35.9112 33.358 35.9112Z" fill="#FC790D"/>
<path fill-rule="evenodd" clip-rule="evenodd" d="M11.2763 17C14.3348 17 16.9793 18.0843 19.2089 20.2498C21.4377 22.4165 22.5529 24.9865 22.5529 27.958C22.5529 34.5596 17.8088 39.42 8.32137 42.5442V38.5389C5.78049 37.8324 3.75826 36.4851 2.25513 34.4955C0.75089 32.5056 0 30.3275 0 27.958C0 24.9865 1.11391 22.4165 3.34396 20.2498C5.57222 18.0843 8.21657 17 11.2763 17ZM13.7076 30.5037C13.6825 30.5273 13.6679 30.5408 13.6679 30.5408C13.4832 30.6375 13.386 30.7822 13.47 30.977C13.5432 31.1463 13.622 31.2015 13.8001 31.3105C13.8518 31.342 13.9041 31.3633 13.954 31.3836C14.0473 31.4216 14.1323 31.4562 14.1895 31.5477C14.282 31.6952 14.2092 31.9835 13.7472 32.022C13.3981 32.0511 12.7975 31.8875 12.3086 31.644C11.8701 31.425 11.4704 31.1506 11.4704 31.1502C11.4448 31.1508 11.4192 31.1518 11.3936 31.1527C11.3267 31.155 11.2595 31.1574 11.1913 31.1554C8.84459 31.0987 6.98472 29.3957 7.03667 27.3508C7.08885 25.3057 9.03315 23.6937 11.3797 23.75C13.7266 23.8067 15.5865 25.5103 15.5343 27.555C15.5029 28.7855 14.7841 29.8561 13.7076 30.5037Z" fill="#FC790D"/>
</svg>
