<svg width="106" height="65" viewBox="0 0 106 65" fill="none" xmlns="http://www.w3.org/2000/svg">
<g clip-path="url(#clip0_6092_56037)">
<path fill-rule="evenodd" clip-rule="evenodd" d="M18.0029 17.9846C19.577 18.6459 20.9979 19.6193 22.1784 20.8451C23.4143 22.0239 24.3959 23.4392 25.0636 25.0051C25.7313 26.5711 26.0713 28.2551 26.063 29.9552C26.0808 37.7412 20.6022 43.4773 9.62708 47.1637V42.4445C6.80271 41.7077 4.32337 40.0231 2.61135 37.6776C0.919303 35.4521 0.00233657 32.742 -0.00151383 29.9552C-0.0223888 28.2557 0.30928 26.5701 0.972914 25.003C1.63655 23.4359 2.61799 22.0206 3.85633 20.8451C5.03535 19.6131 6.45828 18.6356 8.03604 17.9739C9.61379 17.3123 11.3124 16.9806 13.0254 16.9998C14.735 16.9882 16.4288 17.3233 18.0029 17.9846ZM15.8377 32.9584L15.7897 33.0061L15.8164 32.969C15.7616 32.9824 15.7107 33.0081 15.6676 33.0441C15.6245 33.0801 15.5902 33.1254 15.5675 33.1766C15.5448 33.2277 15.5342 33.2833 15.5366 33.3392C15.539 33.395 15.5543 33.4496 15.5813 33.4986C15.668 33.6643 15.8042 33.7993 15.9713 33.8853C16.0246 33.9199 16.083 33.9426 16.14 33.9648C16.249 34.0072 16.3534 34.0479 16.4095 34.166C16.495 34.3461 16.4095 34.6798 15.8751 34.7327C15.295 34.7233 14.7261 34.5723 14.2187 34.2931C13.8877 34.1174 13.5682 33.921 13.2623 33.7052H12.9524C10.238 33.6522 8.08999 31.6025 8.14342 29.2137C8.19685 26.825 10.4517 24.9235 13.1661 24.9765C15.8805 25.0294 18.0285 27.058 17.9751 29.468C17.9394 30.18 17.7253 30.872 17.3522 31.4814C16.979 32.0908 16.4585 32.5984 15.8377 32.9584Z" fill="#FC790D"/>
<path d="M74.1163 28.7217L76.2002 20.1095H73.2774V18.5205H87.17V20.1095H77.9849L77.3544 22.8902H86.1761L84.7495 31.2587H87.6936V32.8477H72.7324V31.2587H82.8847L83.3816 28.7217H74.1163ZM83.5953 27.2228L84.0976 24.3944H76.991L76.3552 27.2439H83.5953V27.2228Z" fill="black"/>
<path d="M69.7721 25.2681H63.6861V24.5319L68.5057 19.6856V18.5415H56.1734V20.0881H65.7219L61.8319 23.9228V25.2681H55.062V26.8412H61.8319V31.2374H57.6428V32.8052H63.6861V31.4386V26.8412H69.7721V25.2681Z" fill="black"/>
<path d="M95.864 27.8051L96.2274 30.8083H92.6527L93.8069 24.9132H97.9426V23.3613H90.6597V24.9132H92.0863L90.6597 32.3814H98.1723L97.4243 27.5138L95.864 27.8051Z" fill="black"/>
<path d="M97.6748 19.1245H91.0225V20.6075H97.6748V19.1245Z" fill="black"/>
<path d="M102.084 19.553L102.244 18.2924L100.572 18.1123L100.412 19.553H99.0757V21.1208H100.23L98.894 32.6037L100.572 32.805L101.929 21.1208H104.211L104.008 31.1048H103.147V32.7414H105.867L106.001 19.553H102.084Z" fill="black"/>
<path d="M40.1067 18.6524L40.4701 17.3971L38.819 17.1958L38.4076 18.6524L38.0015 20.2201L36.6924 24.5315L38.3648 24.7063L39.7007 20.2201H49.4735L49.2491 31.0781H46.353V32.7147H51.1032L51.2635 18.6524H40.1067Z" fill="black"/>
<path d="M40.2773 28.9701H47.4854V22.2646H40.2773V28.9701ZM42.062 23.7901H45.6847V27.3811H42.0727V23.7689L42.062 23.7901Z" fill="black"/>
<path d="M39.9232 45.9455C38.7134 45.9455 37.9068 45.4526 37.3467 44.4892L38.4893 43.6491C38.8142 44.254 39.2511 44.5116 39.7216 44.5116C40.4497 44.5116 40.8306 44.1196 40.8306 42.9769V37.499H42.4885V43.1114C42.4885 44.6685 41.7044 45.9455 39.9232 45.9455Z" fill="#FC790D"/>
<path d="M106.115 39.0095H103.929V45.7046H102.415V39.0095H100.241V37.6797H106.115V39.0095Z" fill="black"/>
<path d="M93.486 45.8197C92.9078 45.8197 92.3952 45.758 91.9481 45.6347C91.501 45.5113 91.1271 45.2955 90.8264 44.9871C90.5258 44.671 90.2945 44.2471 90.1326 43.7151C89.9785 43.1832 89.9014 42.5087 89.9014 41.6916C89.9014 40.8821 89.9785 40.2115 90.1326 39.6796C90.2945 39.1476 90.5258 38.7275 90.8264 38.4192C91.1271 38.1031 91.501 37.8834 91.9481 37.7601C92.3952 37.629 92.9078 37.5635 93.486 37.5635C94.0642 37.5635 94.5729 37.629 95.0123 37.7601C95.4594 37.8834 95.8333 38.1031 96.134 38.4192C96.4423 38.7275 96.6736 39.1476 96.8278 39.6796C96.982 40.2115 97.059 40.8821 97.059 41.6916C97.059 42.5087 96.982 43.1832 96.8278 43.7151C96.6736 44.2471 96.4423 44.671 96.134 44.9871C95.8333 45.2955 95.4594 45.5113 95.0123 45.6347C94.5729 45.758 94.0642 45.8197 93.486 45.8197ZM93.486 44.5477C93.8946 44.5477 94.226 44.4976 94.4804 44.3974C94.7425 44.2895 94.9468 44.1237 95.0933 43.9002C95.2397 43.6766 95.34 43.3837 95.3939 43.0213C95.4479 42.659 95.4749 42.2158 95.4749 41.6916C95.4749 41.1828 95.4479 40.7472 95.3939 40.3849C95.34 40.0149 95.2397 39.7142 95.0933 39.483C94.9468 39.2517 94.7425 39.0821 94.4804 38.9742C94.226 38.8663 93.8946 38.8123 93.486 38.8123C93.0774 38.8123 92.7421 38.8663 92.48 38.9742C92.2179 39.0821 92.0136 39.2517 91.8671 39.483C91.7207 39.7142 91.6204 40.0149 91.5665 40.3849C91.5125 40.7472 91.4855 41.1828 91.4855 41.6916C91.4855 42.2158 91.5125 42.659 91.5665 43.0213C91.6204 43.3837 91.7207 43.6766 91.8671 43.9002C92.0136 44.1237 92.2179 44.2895 92.48 44.3974C92.7421 44.4976 93.0774 44.5477 93.486 44.5477Z" fill="black"/>
<path d="M80.165 37.6797H82.7437C83.3064 37.6797 83.7728 37.7259 84.1428 37.8184C84.5205 37.9032 84.8173 38.0343 85.0332 38.2116C85.2567 38.3889 85.4109 38.6125 85.4957 38.8823C85.5882 39.1521 85.6345 39.4681 85.6345 39.8305C85.6345 40.2467 85.5458 40.5975 85.3685 40.8827C85.1989 41.1602 84.8983 41.3645 84.4666 41.4956V41.5418C84.9677 41.6575 85.3261 41.8733 85.542 42.1894C85.7655 42.4977 85.8773 42.8986 85.8773 43.3919C85.8773 43.7543 85.831 44.0819 85.7385 44.3748C85.6537 44.6601 85.4996 44.9029 85.276 45.1033C85.0525 45.296 84.7518 45.4464 84.3741 45.5543C84.004 45.6545 83.5377 45.7046 82.9749 45.7046H80.165V37.6797ZM82.3389 41.0562C82.655 41.0562 82.9248 41.0407 83.1484 41.0099C83.3796 40.9791 83.5685 40.9251 83.715 40.848C83.8614 40.7632 83.9694 40.6515 84.0387 40.5127C84.1081 40.3739 84.1428 40.1928 84.1428 39.9692C84.1428 39.7302 84.1081 39.5414 84.0387 39.4026C83.9694 39.2639 83.8614 39.1598 83.715 39.0904C83.5762 39.0133 83.3912 38.9632 83.1599 38.9401C82.9364 38.917 82.6627 38.9054 82.3389 38.9054H81.6798V41.0562H82.3389ZM82.5818 44.4673C82.9287 44.4673 83.2139 44.4519 83.4374 44.4211C83.6687 44.3902 83.8499 44.3324 83.9809 44.2476C84.1197 44.1551 84.216 44.0356 84.27 43.8892C84.324 43.7427 84.3509 43.5538 84.3509 43.3226C84.3509 43.1144 84.324 42.9371 84.27 42.7907C84.216 42.6442 84.1197 42.5286 83.9809 42.4438C83.8499 42.3513 83.6687 42.2857 83.4374 42.2472C83.2139 42.2009 82.9287 42.1778 82.5818 42.1778H81.6798V44.4673H82.5818Z" fill="black"/>
<path d="M74.7127 45.7735C74.5199 45.7735 74.3619 45.7619 74.2386 45.7388C74.1229 45.7156 74.0304 45.6733 73.961 45.6116C73.8917 45.5422 73.8454 45.4497 73.8223 45.3341C73.7992 45.2107 73.7876 45.0488 73.7876 44.8484C73.7876 44.648 73.7992 44.4861 73.8223 44.3627C73.8454 44.2394 73.8917 44.1469 73.961 44.0852C74.0304 44.0158 74.1229 43.9734 74.2386 43.958C74.3619 43.9349 74.5199 43.9233 74.7127 43.9233C74.8977 43.9233 75.048 43.9349 75.1636 43.958C75.287 43.9734 75.3833 44.0158 75.4527 44.0852C75.5221 44.1469 75.5683 44.2394 75.5915 44.3627C75.6223 44.4861 75.6377 44.648 75.6377 44.8484C75.6377 45.0488 75.6223 45.2107 75.5915 45.3341C75.5683 45.4497 75.5221 45.5422 75.4527 45.6116C75.3833 45.6733 75.287 45.7156 75.1636 45.7388C75.048 45.7619 74.8977 45.7735 74.7127 45.7735Z" fill="black"/>
<path d="M67.751 37.6797H69.2658V45.7046H67.751V37.6797Z" fill="#FC790D"/>
<path d="M57.3696 44.3054L61.5555 39.0673L61.544 38.9979H57.6009V37.6797H63.3941V39.021L59.1619 44.3054V44.3748H63.6832V45.7046H57.3696V44.3054Z" fill="#FC790D"/>
<path d="M49.9238 45.8202C49.3996 45.8202 48.937 45.774 48.5362 45.6815C48.1353 45.589 47.7961 45.4348 47.5186 45.2189C47.2488 45.0031 47.0406 44.7217 46.8942 44.3748C46.7554 44.0202 46.686 43.5847 46.686 43.0682V37.6797H48.2008V42.86C48.2008 43.153 48.2278 43.4035 48.2818 43.6117C48.3357 43.8198 48.4282 43.9894 48.5593 44.1204C48.698 44.2515 48.8753 44.3517 49.0912 44.4211C49.3148 44.4828 49.5961 44.5136 49.9353 44.5136C50.2822 44.5136 50.5674 44.4828 50.791 44.4211C51.0223 44.3517 51.2034 44.2476 51.3345 44.1089C51.4655 43.9701 51.5542 43.7967 51.6004 43.5885C51.6544 43.3804 51.6814 43.1376 51.6814 42.86V37.6797H53.1846V43.0682C53.1846 44.0472 52.9032 44.7526 52.3405 45.1843C51.7854 45.6082 50.9799 45.8202 49.9238 45.8202Z" fill="#FC790D"/>
</g>
<defs>
<clipPath id="clip0_6092_56037">
<rect width="106" height="30.1692" fill="white" transform="translate(0 17)"/>
</clipPath>
</defs>
</svg>
