<svg width="106" height="64" viewBox="0 0 106 64" fill="none" xmlns="http://www.w3.org/2000/svg">
<g clip-path="url(#clip0_6035_32552)">
<path fill-rule="evenodd" clip-rule="evenodd" d="M18.1998 17.9786C19.765 18.6362 21.178 19.6042 22.3519 20.8231C23.5808 21.9952 24.5568 23.4026 25.2208 24.9597C25.8848 26.5169 26.2229 28.1915 26.2147 29.882C26.2324 37.6243 20.7845 43.3283 9.87091 46.9941V42.3013C7.06238 41.5686 4.59695 39.8934 2.89454 37.5611C1.21198 35.3481 0.300161 32.6532 0.296333 29.882C0.275575 28.1921 0.605383 26.516 1.26529 24.9576C1.92521 23.3993 2.90114 21.992 4.13254 20.8231C5.30494 19.5979 6.7199 18.626 8.2888 17.968C9.8577 17.31 11.5468 16.9803 13.2502 16.9993C14.9501 16.9878 16.6345 17.321 18.1998 17.9786ZM16.0462 32.8689L15.9984 32.9163L16.0249 32.8794C15.9705 32.8928 15.9199 32.9183 15.877 32.9541C15.8341 32.9899 15.8 33.035 15.7775 33.0858C15.7549 33.1367 15.7444 33.192 15.7468 33.2475C15.7491 33.3031 15.7643 33.3573 15.7911 33.4061C15.8774 33.5708 16.0128 33.7051 16.179 33.7906C16.232 33.825 16.29 33.8476 16.3468 33.8697C16.4551 33.9118 16.5589 33.9522 16.6147 34.0697C16.6997 34.2488 16.6147 34.5806 16.0834 34.6333C15.5064 34.6239 14.9407 34.4738 14.4362 34.1961C14.1071 34.0214 13.7894 33.8261 13.4852 33.6115H13.177C10.4778 33.5588 8.34188 31.5206 8.39501 29.1452C8.44815 26.7699 10.6904 24.8791 13.3895 24.9317C16.0887 24.9844 18.2246 27.0016 18.1715 29.398C18.136 30.1061 17.9232 30.7942 17.5521 31.4002C17.181 32.0062 16.6635 32.5109 16.0462 32.8689Z" fill="#FC790D"/>
<path d="M73.9977 28.6557L76.0699 20.0918H73.1635V18.5117H86.9781V20.0918H77.8446L77.2176 22.8569H85.9899L84.5712 31.1785H87.4988V32.7586H72.6216V31.1785H82.7169L83.211 28.6557H73.9977ZM83.4235 27.1652L83.923 24.3527H76.8563L76.224 27.1862H83.4235V27.1652Z" fill="#3E3A39"/>
<path d="M69.6788 25.2216H63.6269V24.4895L68.4195 19.6704V18.5327H56.1564V20.0706H65.6513L61.7832 23.8838V25.2216H55.0513V26.7859H61.7832V31.1574H57.6176V32.7164H63.6269V31.3575V26.7859H69.6788V25.2216Z" fill="#3E3A39"/>
<path d="M95.6229 27.7446L95.9842 30.7309H92.4296L93.5773 24.8689H97.6898V23.3257H90.4478V24.8689H91.8664L90.4478 32.2951H97.9183L97.1744 27.4549L95.6229 27.7446Z" fill="#3E3A39"/>
<path d="M97.4241 19.1123H90.8091V20.587H97.4241V19.1123Z" fill="#3E3A39"/>
<path d="M101.808 19.5385L101.968 18.285L100.305 18.106L100.145 19.5385H98.8169V21.0975H99.9646L98.6362 32.5161L100.305 32.7162L101.654 21.0975H103.923L103.721 31.0255H102.866V32.653H105.57L105.703 19.5385H101.808Z" fill="#3E3A39"/>
<path d="M40.1789 18.6432L40.5402 17.395L38.8984 17.1948L38.4893 18.6432L38.0855 20.2022L36.7837 24.4894L38.4468 24.6632L39.7751 20.2022H49.4931L49.27 30.9992H46.3902V32.6267H51.1137L51.2731 18.6432H40.1789Z" fill="#3E3A39"/>
<path d="M40.3491 28.9032H47.5168V22.2354H40.3491V28.9032ZM42.1238 23.7522H45.7262V27.3231H42.1344V23.7311L42.1238 23.7522Z" fill="#3E3A39"/>
<path d="M41.9426 43.5081C41.9426 45.7904 40.9933 46.9316 39.0947 46.9316C38.3168 46.915 37.5758 46.5996 37.0278 46.052L38.2233 44.8511C38.3136 45.0255 38.4465 45.1746 38.6098 45.285C38.7732 45.3954 38.9618 45.4635 39.1585 45.4832C39.3123 45.4877 39.4643 45.4497 39.5976 45.3734C39.7308 45.2971 39.84 45.1856 39.913 45.0513C40.1305 44.4603 40.2158 43.8295 40.1627 43.2026V37.3301H41.9426V43.5081Z" fill="#FC790D"/>
<path d="M46.4592 40.6006V43.8924C46.4592 45.0774 46.9215 45.6673 47.846 45.6673C48.7705 45.6673 49.2381 45.0774 49.2381 43.8924V40.6006H50.9171V44.1768C50.9171 45.9833 49.8969 46.8892 47.846 46.8892C45.7951 46.8892 44.7749 45.978 44.7749 44.1768V40.6006H46.4592Z" fill="#FC790D"/>
<path d="M59.4185 45.4672V46.6838H53.0425L56.7618 41.8172H53.4835V40.6006H59.5194L55.8745 45.4672H59.4185Z" fill="#FC790D"/>
<path d="M63.7278 38.0411C63.7278 38.1588 63.7016 38.275 63.6511 38.3816C63.6006 38.4881 63.527 38.5822 63.4356 38.6573C63.2424 38.8234 62.9953 38.9148 62.7396 38.9148C62.4839 38.9148 62.2367 38.8234 62.0435 38.6573C61.9522 38.5822 61.8786 38.488 61.8281 38.3815C61.7776 38.275 61.7515 38.1588 61.7515 38.0411C61.7515 37.9234 61.7776 37.8072 61.8281 37.7007C61.8786 37.5942 61.9522 37.5 62.0435 37.4249C62.2367 37.2589 62.4839 37.1675 62.7396 37.1675C62.9953 37.1675 63.2424 37.2589 63.4356 37.4249C63.527 37.5 63.6006 37.5942 63.6511 37.7007C63.7016 37.8072 63.7278 37.9234 63.7278 38.0411V38.0411ZM63.5897 46.684H61.9054V40.6008H63.5897V46.684Z" fill="#FC790D"/>
<path d="M69.1099 45.8046C69.1111 45.9547 69.08 46.1033 69.0186 46.2404C68.9572 46.3776 68.867 46.5002 68.7539 46.5999C68.5169 46.8203 68.202 46.9395 67.8772 46.9317C67.5504 46.9382 67.2333 46.8215 66.9899 46.6052C66.872 46.5094 66.777 46.3888 66.7118 46.2522C66.6466 46.1156 66.6128 45.9663 66.6128 45.8152C66.6128 45.664 66.6466 45.5148 66.7118 45.3782C66.777 45.2416 66.872 45.121 66.9899 45.0252C67.2298 44.81 67.5431 44.6933 67.8666 44.6986C68.1875 44.691 68.4999 44.8017 68.7433 45.0094C68.863 45.1042 68.9585 45.2255 69.0222 45.3637C69.0859 45.5018 69.1159 45.6529 69.1099 45.8046Z" fill="#3E3A39"/>
<path d="M71.9153 36.1606H73.5996V41.1536C73.8884 40.8858 74.2303 40.6804 74.6035 40.5508C74.9768 40.4211 75.3732 40.3699 75.7675 40.4005C76.1893 40.3894 76.6085 40.4689 76.9964 40.6334C77.3843 40.798 77.7318 41.0437 78.015 41.3538C78.5994 41.9582 78.9217 42.7655 78.9129 43.6027C78.9387 44.4675 78.6199 45.3076 78.0256 45.9412C77.7341 46.2515 77.3788 46.4962 76.9838 46.6589C76.5887 46.8215 76.1631 46.8983 75.7356 46.884C74.726 46.884 74.0247 46.6259 73.6102 46.115L73.5784 46.6838H71.894L71.9153 36.1606ZM77.1914 43.6501C77.1955 43.1466 77.0055 42.6605 76.6601 42.2913C76.4879 42.1013 76.2761 41.9506 76.0395 41.8497C75.8028 41.7487 75.5468 41.6999 75.2892 41.7066C75.0343 41.6984 74.7807 41.746 74.5465 41.8462C74.3122 41.9463 74.1032 42.0965 73.9344 42.286C73.5883 42.659 73.3984 43.1486 73.403 43.6554C73.3909 44.165 73.5818 44.6589 73.9344 45.03C74.112 45.2098 74.324 45.3527 74.558 45.4502C74.7921 45.5477 75.0434 45.5979 75.2972 45.5979C75.5511 45.5979 75.8024 45.5477 76.0364 45.4502C76.2704 45.3527 76.4825 45.2098 76.6601 45.03C77.0082 44.654 77.1983 44.1604 77.1914 43.6501V43.6501Z" fill="#3E3A39"/>
<path d="M87.8765 43.65C87.891 44.0873 87.8102 44.5225 87.6396 44.9261C87.4691 45.3296 87.2128 45.692 86.8882 45.9885C86.176 46.6143 85.2462 46.9411 84.2953 46.8996C83.3381 46.941 82.4016 46.6146 81.6812 45.9885C81.352 45.6948 81.0916 45.3333 80.9181 44.9293C80.7446 44.5254 80.6623 44.0888 80.6769 43.65C80.6632 43.2136 80.7444 42.7793 80.9149 42.3768C81.0854 41.9742 81.3413 41.6127 81.6652 41.3168C82.3812 40.6907 83.3151 40.3658 84.2688 40.4109C85.2228 40.3679 86.1569 40.6904 86.8776 41.3115C87.2069 41.6048 87.4672 41.9663 87.6398 42.3705C87.8124 42.7746 87.8932 43.2114 87.8765 43.65V43.65ZM82.3772 43.65C82.3657 43.9062 82.4068 44.162 82.4981 44.402C82.5895 44.6419 82.7291 44.8609 82.9085 45.0457C83.0912 45.2227 83.3084 45.3608 83.5469 45.4513C83.7854 45.5419 84.0401 45.5831 84.2953 45.5724C84.5517 45.5833 84.8072 45.5374 85.0434 45.4381C85.2796 45.3388 85.4906 45.1885 85.6608 44.9983C86.0054 44.6222 86.195 44.1317 86.1922 43.6237C86.1968 43.1169 86.0069 42.6273 85.6608 42.2543C85.4909 42.0646 85.281 41.9144 85.0459 41.8143C84.8108 41.7142 84.5564 41.6666 84.3006 41.6749C84.0436 41.6654 83.7874 41.7103 83.5492 41.8066C83.311 41.9028 83.0963 42.0483 82.9192 42.2332C82.7372 42.421 82.5954 42.6433 82.5023 42.8868C82.4092 43.1302 82.3666 43.3898 82.3772 43.65V43.65Z" fill="#3E3A39"/>
<path d="M93.6198 45.5621C93.3705 45.5591 93.1253 45.499 92.9032 45.3867C92.6811 45.2743 92.4881 45.1127 92.3393 44.9143C92.2529 44.5551 92.2048 44.1879 92.1959 43.8188L92.1693 42.6917V42.6232V42.4757V42.165H93.3276V40.7113H92.1693V38.5361H90.5062V40.3743V40.7113H89.3745V42.1913H90.5062V43.6502C90.5062 44.6088 90.6072 45.5885 90.9685 46.0151C91.2752 46.3461 91.6533 46.6042 92.0747 46.7701C92.496 46.9361 92.9498 47.0057 93.402 46.9736H94.2468V45.5621H93.6198Z" fill="#3E3A39"/>
</g>
<defs>
<clipPath id="clip0_6035_32552">
<rect width="105.405" height="30" fill="white" transform="translate(0.297363 17)"/>
</clipPath>
</defs>
</svg>
